<svg width="195" height="173" viewBox="0 0 195 173" fill="none" xmlns="http://www.w3.org/2000/svg">
<g clip-path="url(#clip0)">
<path d="M145.741 14.5342H105.257C105.257 18.4897 101.614 21.726 97.1606 21.726C92.7074 21.726 89.0638 18.4897 89.0638 14.5342H48.5802C39.6738 14.5342 32.3867 21.0068 32.3867 28.9178V143.987C32.3867 151.898 39.6738 158.37 48.5802 158.37H145.741C154.647 158.37 161.934 151.898 161.934 143.987V28.9178C161.934 21.0068 154.647 14.5342 145.741 14.5342Z" fill="#FFA489"/>
<path d="M145.741 147.583H48.5801C46.1511 147.583 44.5317 146.144 44.5317 143.987V28.9179C44.5317 26.7604 46.1511 25.322 48.5801 25.322H145.741C148.17 25.322 149.789 26.7604 149.789 28.9179V143.987C149.789 146.144 148.17 147.583 145.741 147.583Z" fill="white"/>
<path d="M105.258 14.5344C105.258 18.4899 101.614 21.7262 97.1609 21.7262C92.7077 21.7262 89.0641 18.4899 89.0641 14.5344H60.7256V28.918C60.7256 32.8735 64.3691 36.1098 68.8223 36.1098H125.499C129.953 36.1098 133.596 32.8735 133.596 28.918V14.5344H105.258Z" fill="#F12A00"/>
<path d="M97.1603 0.150635C88.2539 0.150635 80.9668 6.62326 80.9668 14.5342C80.9668 22.4452 88.2539 28.9178 97.1603 28.9178C106.067 28.9178 113.354 22.4452 113.354 14.5342C113.354 6.62326 106.067 0.150635 97.1603 0.150635ZM97.1603 21.726C92.7071 21.726 89.0635 18.4897 89.0635 14.5342C89.0635 10.5787 92.7071 7.34244 97.1603 7.34244C101.613 7.34244 105.257 10.5787 105.257 14.5342C105.257 18.4897 101.613 21.726 97.1603 21.726Z" fill="#F12A00"/>
<path d="M123.88 67.0339L87.4449 99.397L70.4417 83.9347L60.3208 92.9244L87.8497 117.017L134.001 76.0237L123.88 67.0339Z" fill="#4CAF50"/>
</g>
<defs>
<clipPath id="clip0">
<rect width="194.322" height="172.603" fill="white" transform="translate(0 0.150391)"/>
</clipPath>
</defs>
</svg>
