
<svg width="195" height="173" viewBox="0 0 195 173" fill="none" xmlns="http://www.w3.org/2000/svg">
<g clip-path="url(#clip0)">
<path d="M145.741 14.5342H105.257C105.257 18.4897 101.614 21.726 97.1606 21.726C92.7074 21.726 89.0638 18.4897 89.0638 14.5342H48.5802C39.6738 14.5342 32.3867 21.0068 32.3867 28.9178V143.987C32.3867 151.898 39.6738 158.37 48.5802 158.37H145.741C154.647 158.37 161.934 151.898 161.934 143.987V28.9178C161.934 21.0068 154.647 14.5342 145.741 14.5342Z" fill="#FFA489"/>
<path d="M145.741 147.583H48.5801C46.1511 147.583 44.5317 146.144 44.5317 143.987V28.9179C44.5317 26.7604 46.1511 25.322 48.5801 25.322H145.741C148.17 25.322 149.789 26.7604 149.789 28.9179V143.987C149.789 146.144 148.17 147.583 145.741 147.583Z" fill="white"/>
<path d="M105.258 14.5344C105.258 18.4899 101.614 21.7262 97.1609 21.7262C92.7077 21.7262 89.0641 18.4899 89.0641 14.5344H60.7256V28.918C60.7256 32.8735 64.3691 36.1098 68.8223 36.1098H125.499C129.953 36.1098 133.596 32.8735 133.596 28.918V14.5344H105.258Z" fill="#F12A00"/>
<path d="M97.1603 0.150635C88.2539 0.150635 80.9668 6.62326 80.9668 14.5342C80.9668 22.4452 88.2539 28.9178 97.1603 28.9178C106.067 28.9178 113.354 22.4452 113.354 14.5342C113.354 6.62326 106.067 0.150635 97.1603 0.150635ZM97.1603 21.726C92.7071 21.726 89.0635 18.4897 89.0635 14.5342C89.0635 10.5787 92.7071 7.34244 97.1603 7.34244C101.613 7.34244 105.257 10.5787 105.257 14.5342C105.257 18.4897 101.613 21.726 97.1603 21.726Z" fill="#F12A00"/>
<path fill-rule="evenodd" clip-rule="evenodd" d="M127.368 56.1476C127.732 56.5105 128.02 56.9415 128.217 57.4161C128.414 57.8907 128.515 58.3994 128.515 58.9132C128.515 59.427 128.414 59.9358 128.217 60.4104C128.02 60.8849 127.732 61.316 127.368 61.6789L72.6802 116.366C71.9467 117.1 70.9519 117.512 69.9146 117.512C68.8773 117.512 67.8825 117.1 67.149 116.366C66.4155 115.633 66.0034 114.638 66.0034 113.601C66.0034 112.563 66.4155 111.569 67.149 110.835L121.836 56.1476C122.199 55.7838 122.63 55.4952 123.105 55.2983C123.58 55.1014 124.088 55 124.602 55C125.116 55 125.625 55.1014 126.099 55.2983C126.574 55.4952 127.005 55.7838 127.368 56.1476V56.1476Z" fill="#CC0000"/>
<path fill-rule="evenodd" clip-rule="evenodd" d="M67.1476 56.1476C66.7838 56.5105 66.4952 56.9415 66.2983 57.4161C66.1014 57.8907 66 58.3994 66 58.9132C66 59.427 66.1014 59.9358 66.2983 60.4104C66.4952 60.8849 66.7838 61.316 67.1476 61.6789L121.835 116.366C122.569 117.1 123.563 117.512 124.601 117.512C125.638 117.512 126.633 117.1 127.366 116.366C128.1 115.633 128.512 114.638 128.512 113.601C128.512 112.563 128.1 111.569 127.366 110.835L72.6789 56.1476C72.316 55.7838 71.8849 55.4952 71.4104 55.2983C70.9358 55.1014 70.427 55 69.9132 55C69.3994 55 68.8907 55.1014 68.4161 55.2983C67.9415 55.4952 67.5105 55.7838 67.1476 56.1476V56.1476Z" fill="#CC0000"/>
</g>
<defs>
<clipPath id="clip0">
<rect width="194.322" height="172.603" fill="white" transform="translate(0 0.150391)"/>
</clipPath>
</defs>
</svg>
